<mxfile host="Electron" modified="2024-07-09T01:21:01.036Z" agent="Mozilla/5.0 (Windows NT 10.0; Win64; x64) AppleWebKit/537.36 (KHTML, like Gecko) draw.io/24.6.4 Chrome/124.0.6367.207 Electron/30.0.6 Safari/537.36" etag="xF3B-p3TNrX_3yYSvkXu" version="24.6.4" type="device">
  <diagram name="Page-1" id="8s06rANeTsTHKo8MvxDo">
    <mxGraphModel dx="1526" dy="932" grid="1" gridSize="10" guides="1" tooltips="1" connect="1" arrows="1" fold="1" page="1" pageScale="1" pageWidth="827" pageHeight="1169" math="0" shadow="0">
      <root>
        <mxCell id="0" />
        <mxCell id="1" parent="0" />
        <mxCell id="yoqY20Fh9Ah1oV6qkZ4c-1" value="USERROLE" style="rounded=0;whiteSpace=wrap;html=1;" vertex="1" parent="1">
          <mxGeometry x="320" y="120" width="100" height="30" as="geometry" />
        </mxCell>
        <mxCell id="yoqY20Fh9Ah1oV6qkZ4c-2" value="" style="endArrow=none;html=1;rounded=0;entryX=1;entryY=0.5;entryDx=0;entryDy=0;exitX=0.013;exitY=0.485;exitDx=0;exitDy=0;exitPerimeter=0;" edge="1" parent="1" source="yoqY20Fh9Ah1oV6qkZ4c-3" target="yoqY20Fh9Ah1oV6qkZ4c-1">
          <mxGeometry width="50" height="50" relative="1" as="geometry">
            <mxPoint x="500" y="200" as="sourcePoint" />
            <mxPoint x="380" y="290" as="targetPoint" />
          </mxGeometry>
        </mxCell>
        <mxCell id="yoqY20Fh9Ah1oV6qkZ4c-3" value="HAVE" style="rhombus;whiteSpace=wrap;html=1;" vertex="1" parent="1">
          <mxGeometry x="505" y="100" width="70" height="70" as="geometry" />
        </mxCell>
        <mxCell id="yoqY20Fh9Ah1oV6qkZ4c-4" value="ROLE" style="rounded=0;whiteSpace=wrap;html=1;" vertex="1" parent="1">
          <mxGeometry x="490" y="310" width="100" height="30" as="geometry" />
        </mxCell>
        <mxCell id="yoqY20Fh9Ah1oV6qkZ4c-5" value="" style="endArrow=none;html=1;rounded=0;entryX=0.5;entryY=1;entryDx=0;entryDy=0;exitX=0.473;exitY=0.027;exitDx=0;exitDy=0;exitPerimeter=0;" edge="1" parent="1" source="yoqY20Fh9Ah1oV6qkZ4c-4" target="yoqY20Fh9Ah1oV6qkZ4c-3">
          <mxGeometry width="50" height="50" relative="1" as="geometry">
            <mxPoint x="511" y="214" as="sourcePoint" />
            <mxPoint x="440" y="145" as="targetPoint" />
          </mxGeometry>
        </mxCell>
        <mxCell id="yoqY20Fh9Ah1oV6qkZ4c-6" value="ID" style="ellipse;whiteSpace=wrap;html=1;" vertex="1" parent="1">
          <mxGeometry x="620" y="265" width="70" height="30" as="geometry" />
        </mxCell>
        <mxCell id="yoqY20Fh9Ah1oV6qkZ4c-7" value="" style="endArrow=none;html=1;rounded=0;entryX=0.02;entryY=0.657;entryDx=0;entryDy=0;entryPerimeter=0;" edge="1" parent="1" target="yoqY20Fh9Ah1oV6qkZ4c-6">
          <mxGeometry width="50" height="50" relative="1" as="geometry">
            <mxPoint x="540" y="310" as="sourcePoint" />
            <mxPoint x="545" y="250" as="targetPoint" />
          </mxGeometry>
        </mxCell>
        <mxCell id="yoqY20Fh9Ah1oV6qkZ4c-8" value="Permision" style="ellipse;whiteSpace=wrap;html=1;" vertex="1" parent="1">
          <mxGeometry x="550" y="225" width="91" height="40" as="geometry" />
        </mxCell>
        <mxCell id="yoqY20Fh9Ah1oV6qkZ4c-9" value="" style="endArrow=none;html=1;rounded=0;entryX=0.36;entryY=0.979;entryDx=0;entryDy=0;entryPerimeter=0;exitX=0.495;exitY=-0.004;exitDx=0;exitDy=0;exitPerimeter=0;" edge="1" parent="1" target="yoqY20Fh9Ah1oV6qkZ4c-8" source="yoqY20Fh9Ah1oV6qkZ4c-4">
          <mxGeometry width="50" height="50" relative="1" as="geometry">
            <mxPoint x="540" y="309" as="sourcePoint" />
            <mxPoint x="534" y="210" as="targetPoint" />
          </mxGeometry>
        </mxCell>
        <mxCell id="yoqY20Fh9Ah1oV6qkZ4c-10" value="Name" style="ellipse;whiteSpace=wrap;html=1;" vertex="1" parent="1">
          <mxGeometry x="460" y="230" width="70" height="30" as="geometry" />
        </mxCell>
        <mxCell id="yoqY20Fh9Ah1oV6qkZ4c-11" value="" style="endArrow=none;html=1;rounded=0;entryX=0.766;entryY=0.914;entryDx=0;entryDy=0;exitX=0.471;exitY=-0.004;exitDx=0;exitDy=0;exitPerimeter=0;entryPerimeter=0;" edge="1" parent="1" target="yoqY20Fh9Ah1oV6qkZ4c-10" source="yoqY20Fh9Ah1oV6qkZ4c-4">
          <mxGeometry width="50" height="50" relative="1" as="geometry">
            <mxPoint x="400" y="300" as="sourcePoint" />
            <mxPoint x="384" y="240" as="targetPoint" />
          </mxGeometry>
        </mxCell>
        <mxCell id="yoqY20Fh9Ah1oV6qkZ4c-12" value="" style="endArrow=none;html=1;rounded=0;entryX=0.449;entryY=0.987;entryDx=0;entryDy=0;exitX=0.5;exitY=0;exitDx=0;exitDy=0;entryPerimeter=0;" edge="1" parent="1" source="yoqY20Fh9Ah1oV6qkZ4c-13" target="yoqY20Fh9Ah1oV6qkZ4c-1">
          <mxGeometry width="50" height="50" relative="1" as="geometry">
            <mxPoint x="440" y="215" as="sourcePoint" />
            <mxPoint x="370" y="150" as="targetPoint" />
          </mxGeometry>
        </mxCell>
        <mxCell id="yoqY20Fh9Ah1oV6qkZ4c-13" value="HAVE" style="rhombus;whiteSpace=wrap;html=1;" vertex="1" parent="1">
          <mxGeometry x="330" y="180" width="70" height="70" as="geometry" />
        </mxCell>
        <mxCell id="yoqY20Fh9Ah1oV6qkZ4c-14" value="SYSTEMUSER" style="rounded=0;whiteSpace=wrap;html=1;" vertex="1" parent="1">
          <mxGeometry x="313" y="320" width="100" height="30" as="geometry" />
        </mxCell>
        <mxCell id="yoqY20Fh9Ah1oV6qkZ4c-15" value="" style="endArrow=none;html=1;rounded=0;exitX=0.5;exitY=0;exitDx=0;exitDy=0;entryX=0.5;entryY=1;entryDx=0;entryDy=0;" edge="1" parent="1" source="yoqY20Fh9Ah1oV6qkZ4c-14" target="yoqY20Fh9Ah1oV6qkZ4c-13">
          <mxGeometry width="50" height="50" relative="1" as="geometry">
            <mxPoint x="361" y="219" as="sourcePoint" />
            <mxPoint x="380" y="249" as="targetPoint" />
          </mxGeometry>
        </mxCell>
        <mxCell id="yoqY20Fh9Ah1oV6qkZ4c-16" value="Name" style="ellipse;whiteSpace=wrap;html=1;" vertex="1" parent="1">
          <mxGeometry x="370" y="270" width="70" height="30" as="geometry" />
        </mxCell>
        <mxCell id="yoqY20Fh9Ah1oV6qkZ4c-17" value="" style="endArrow=none;html=1;rounded=0;entryX=0.5;entryY=1;entryDx=0;entryDy=0;exitX=0.997;exitY=0.035;exitDx=0;exitDy=0;exitPerimeter=0;" edge="1" parent="1" target="yoqY20Fh9Ah1oV6qkZ4c-16" source="yoqY20Fh9Ah1oV6qkZ4c-14">
          <mxGeometry width="50" height="50" relative="1" as="geometry">
            <mxPoint x="405" y="320" as="sourcePoint" />
            <mxPoint x="275" y="252" as="targetPoint" />
          </mxGeometry>
        </mxCell>
        <mxCell id="yoqY20Fh9Ah1oV6qkZ4c-20" value="ID" style="ellipse;whiteSpace=wrap;html=1;" vertex="1" parent="1">
          <mxGeometry x="440" y="299" width="40" height="21" as="geometry" />
        </mxCell>
        <mxCell id="yoqY20Fh9Ah1oV6qkZ4c-21" value="" style="endArrow=none;html=1;rounded=0;entryX=0.002;entryY=0.625;entryDx=0;entryDy=0;exitX=1;exitY=0.11;exitDx=0;exitDy=0;exitPerimeter=0;entryPerimeter=0;" edge="1" parent="1" target="yoqY20Fh9Ah1oV6qkZ4c-20" source="yoqY20Fh9Ah1oV6qkZ4c-14">
          <mxGeometry width="50" height="50" relative="1" as="geometry">
            <mxPoint x="430" y="319.99999999999994" as="sourcePoint" />
            <mxPoint x="340.1" y="270.83" as="targetPoint" />
          </mxGeometry>
        </mxCell>
        <mxCell id="yoqY20Fh9Ah1oV6qkZ4c-22" value="Password" style="ellipse;whiteSpace=wrap;html=1;" vertex="1" parent="1">
          <mxGeometry x="435.1" y="340" width="70" height="30" as="geometry" />
        </mxCell>
        <mxCell id="yoqY20Fh9Ah1oV6qkZ4c-23" value="" style="endArrow=none;html=1;rounded=0;entryX=0.04;entryY=0.322;entryDx=0;entryDy=0;exitX=1.003;exitY=0.183;exitDx=0;exitDy=0;entryPerimeter=0;exitPerimeter=0;" edge="1" parent="1" target="yoqY20Fh9Ah1oV6qkZ4c-22" source="yoqY20Fh9Ah1oV6qkZ4c-14">
          <mxGeometry width="50" height="50" relative="1" as="geometry">
            <mxPoint x="411.5" y="350.47" as="sourcePoint" />
            <mxPoint x="354" y="322" as="targetPoint" />
          </mxGeometry>
        </mxCell>
        <mxCell id="yoqY20Fh9Ah1oV6qkZ4c-24" value="Hash" style="ellipse;whiteSpace=wrap;html=1;" vertex="1" parent="1">
          <mxGeometry x="420" y="374.67" width="70" height="30" as="geometry" />
        </mxCell>
        <mxCell id="yoqY20Fh9Ah1oV6qkZ4c-25" value="" style="endArrow=none;html=1;rounded=0;entryX=0.106;entryY=0.228;entryDx=0;entryDy=0;exitX=0.542;exitY=1.009;exitDx=0;exitDy=0;exitPerimeter=0;entryPerimeter=0;" edge="1" parent="1" target="yoqY20Fh9Ah1oV6qkZ4c-24" source="yoqY20Fh9Ah1oV6qkZ4c-14">
          <mxGeometry width="50" height="50" relative="1" as="geometry">
            <mxPoint x="447" y="431" as="sourcePoint" />
            <mxPoint x="325" y="362" as="targetPoint" />
          </mxGeometry>
        </mxCell>
        <mxCell id="yoqY20Fh9Ah1oV6qkZ4c-26" value="Name" style="ellipse;whiteSpace=wrap;html=1;" vertex="1" parent="1">
          <mxGeometry x="379" y="404.67" width="70" height="30" as="geometry" />
        </mxCell>
        <mxCell id="yoqY20Fh9Ah1oV6qkZ4c-27" value="" style="endArrow=none;html=1;rounded=0;entryX=0.305;entryY=0.025;entryDx=0;entryDy=0;exitX=0.5;exitY=1;exitDx=0;exitDy=0;entryPerimeter=0;" edge="1" parent="1" target="yoqY20Fh9Ah1oV6qkZ4c-26" source="yoqY20Fh9Ah1oV6qkZ4c-14">
          <mxGeometry width="50" height="50" relative="1" as="geometry">
            <mxPoint x="381.9" y="355.33" as="sourcePoint" />
            <mxPoint x="284" y="386.67" as="targetPoint" />
          </mxGeometry>
        </mxCell>
        <mxCell id="yoqY20Fh9Ah1oV6qkZ4c-28" value="User_Crea_Date" style="ellipse;whiteSpace=wrap;html=1;" vertex="1" parent="1">
          <mxGeometry x="313" y="434.67" width="107" height="30" as="geometry" />
        </mxCell>
        <mxCell id="yoqY20Fh9Ah1oV6qkZ4c-29" value="" style="endArrow=none;html=1;rounded=0;entryX=0.437;entryY=0.018;entryDx=0;entryDy=0;exitX=0.447;exitY=0.993;exitDx=0;exitDy=0;exitPerimeter=0;entryPerimeter=0;" edge="1" parent="1" target="yoqY20Fh9Ah1oV6qkZ4c-28" source="yoqY20Fh9Ah1oV6qkZ4c-14">
          <mxGeometry width="50" height="50" relative="1" as="geometry">
            <mxPoint x="364.20000000000005" y="380.54" as="sourcePoint" />
            <mxPoint x="218" y="410.8" as="targetPoint" />
          </mxGeometry>
        </mxCell>
        <mxCell id="yoqY20Fh9Ah1oV6qkZ4c-30" value="Email" style="ellipse;whiteSpace=wrap;html=1;" vertex="1" parent="1">
          <mxGeometry x="281" y="389.17" width="70" height="30" as="geometry" />
        </mxCell>
        <mxCell id="yoqY20Fh9Ah1oV6qkZ4c-31" value="" style="endArrow=none;html=1;rounded=0;entryX=0.557;entryY=-0.056;entryDx=0;entryDy=0;entryPerimeter=0;exitX=0.423;exitY=1.004;exitDx=0;exitDy=0;exitPerimeter=0;" edge="1" parent="1" target="yoqY20Fh9Ah1oV6qkZ4c-30" source="yoqY20Fh9Ah1oV6qkZ4c-14">
          <mxGeometry width="50" height="50" relative="1" as="geometry">
            <mxPoint x="356" y="351" as="sourcePoint" />
            <mxPoint x="186" y="371.17" as="targetPoint" />
          </mxGeometry>
        </mxCell>
        <mxCell id="yoqY20Fh9Ah1oV6qkZ4c-32" value="HAVE" style="rhombus;whiteSpace=wrap;html=1;" vertex="1" parent="1">
          <mxGeometry x="150" y="299" width="70" height="70" as="geometry" />
        </mxCell>
        <mxCell id="yoqY20Fh9Ah1oV6qkZ4c-33" value="" style="endArrow=none;html=1;rounded=0;exitX=0;exitY=0.5;exitDx=0;exitDy=0;entryX=1;entryY=0.5;entryDx=0;entryDy=0;" edge="1" parent="1" target="yoqY20Fh9Ah1oV6qkZ4c-32" source="yoqY20Fh9Ah1oV6qkZ4c-14">
          <mxGeometry width="50" height="50" relative="1" as="geometry">
            <mxPoint x="183" y="434.67" as="sourcePoint" />
            <mxPoint x="200" y="363.67" as="targetPoint" />
          </mxGeometry>
        </mxCell>
        <mxCell id="yoqY20Fh9Ah1oV6qkZ4c-34" value="" style="endArrow=none;html=1;rounded=0;entryX=0.5;entryY=1;entryDx=0;entryDy=0;exitX=0.45;exitY=0.036;exitDx=0;exitDy=0;exitPerimeter=0;" edge="1" parent="1" source="yoqY20Fh9Ah1oV6qkZ4c-52" target="yoqY20Fh9Ah1oV6qkZ4c-32">
          <mxGeometry width="50" height="50" relative="1" as="geometry">
            <mxPoint x="185" y="520" as="sourcePoint" />
            <mxPoint x="320" y="350" as="targetPoint" />
          </mxGeometry>
        </mxCell>
        <mxCell id="yoqY20Fh9Ah1oV6qkZ4c-35" value="HAVE" style="rhombus;whiteSpace=wrap;html=1;" vertex="1" parent="1">
          <mxGeometry x="150" y="210" width="70" height="70" as="geometry" />
        </mxCell>
        <mxCell id="yoqY20Fh9Ah1oV6qkZ4c-36" value="" style="endArrow=none;html=1;rounded=0;exitX=0.135;exitY=-0.028;exitDx=0;exitDy=0;entryX=1;entryY=0.5;entryDx=0;entryDy=0;exitPerimeter=0;" edge="1" parent="1" target="yoqY20Fh9Ah1oV6qkZ4c-35" source="yoqY20Fh9Ah1oV6qkZ4c-14">
          <mxGeometry width="50" height="50" relative="1" as="geometry">
            <mxPoint x="244" y="330" as="sourcePoint" />
            <mxPoint x="261" y="259" as="targetPoint" />
          </mxGeometry>
        </mxCell>
        <mxCell id="yoqY20Fh9Ah1oV6qkZ4c-37" value="ID" style="ellipse;whiteSpace=wrap;html=1;" vertex="1" parent="1">
          <mxGeometry x="350" y="70" width="70" height="30" as="geometry" />
        </mxCell>
        <mxCell id="yoqY20Fh9Ah1oV6qkZ4c-38" value="" style="endArrow=none;html=1;rounded=0;entryX=0.477;entryY=0.999;entryDx=0;entryDy=0;exitX=0.594;exitY=-0.044;exitDx=0;exitDy=0;exitPerimeter=0;entryPerimeter=0;" edge="1" parent="1" target="yoqY20Fh9Ah1oV6qkZ4c-37" source="yoqY20Fh9Ah1oV6qkZ4c-1">
          <mxGeometry width="50" height="50" relative="1" as="geometry">
            <mxPoint x="378" y="120" as="sourcePoint" />
            <mxPoint x="256" y="51" as="targetPoint" />
          </mxGeometry>
        </mxCell>
        <mxCell id="yoqY20Fh9Ah1oV6qkZ4c-39" value="ID" style="ellipse;whiteSpace=wrap;html=1;" vertex="1" parent="1">
          <mxGeometry x="60" y="80" width="70" height="30" as="geometry" />
        </mxCell>
        <mxCell id="yoqY20Fh9Ah1oV6qkZ4c-40" value="" style="endArrow=none;html=1;rounded=0;entryX=0.927;entryY=0.762;entryDx=0;entryDy=0;exitX=0.313;exitY=-0.017;exitDx=0;exitDy=0;entryPerimeter=0;exitPerimeter=0;" edge="1" parent="1" target="yoqY20Fh9Ah1oV6qkZ4c-39" source="yoqY20Fh9Ah1oV6qkZ4c-44">
          <mxGeometry width="50" height="50" relative="1" as="geometry">
            <mxPoint x="127" y="211" as="sourcePoint" />
            <mxPoint x="5" y="142" as="targetPoint" />
          </mxGeometry>
        </mxCell>
        <mxCell id="yoqY20Fh9Ah1oV6qkZ4c-44" value="USERTYPE" style="rounded=0;whiteSpace=wrap;html=1;" vertex="1" parent="1">
          <mxGeometry x="135" y="130" width="100" height="30" as="geometry" />
        </mxCell>
        <mxCell id="yoqY20Fh9Ah1oV6qkZ4c-45" value="" style="endArrow=none;html=1;rounded=0;entryX=0.5;entryY=1;entryDx=0;entryDy=0;exitX=0.5;exitY=0;exitDx=0;exitDy=0;" edge="1" parent="1" target="yoqY20Fh9Ah1oV6qkZ4c-44" source="yoqY20Fh9Ah1oV6qkZ4c-35">
          <mxGeometry width="50" height="50" relative="1" as="geometry">
            <mxPoint x="120" y="190" as="sourcePoint" />
            <mxPoint x="205" y="300" as="targetPoint" />
          </mxGeometry>
        </mxCell>
        <mxCell id="yoqY20Fh9Ah1oV6qkZ4c-50" value="Name" style="ellipse;whiteSpace=wrap;html=1;" vertex="1" parent="1">
          <mxGeometry x="130" y="60" width="70" height="30" as="geometry" />
        </mxCell>
        <mxCell id="yoqY20Fh9Ah1oV6qkZ4c-51" value="" style="endArrow=none;html=1;rounded=0;exitX=0.321;exitY=-0.014;exitDx=0;exitDy=0;exitPerimeter=0;entryX=0.5;entryY=1;entryDx=0;entryDy=0;" edge="1" parent="1" target="yoqY20Fh9Ah1oV6qkZ4c-50" source="yoqY20Fh9Ah1oV6qkZ4c-44">
          <mxGeometry width="50" height="50" relative="1" as="geometry">
            <mxPoint x="165" y="105" as="sourcePoint" />
            <mxPoint x="140" y="100" as="targetPoint" />
          </mxGeometry>
        </mxCell>
        <mxCell id="yoqY20Fh9Ah1oV6qkZ4c-52" value="EMPLOYEES" style="rounded=0;whiteSpace=wrap;html=1;" vertex="1" parent="1">
          <mxGeometry x="140" y="510" width="100" height="30" as="geometry" />
        </mxCell>
        <mxCell id="yoqY20Fh9Ah1oV6qkZ4c-55" value="ID" style="ellipse;whiteSpace=wrap;html=1;" vertex="1" parent="1">
          <mxGeometry x="90" y="460" width="50" height="30" as="geometry" />
        </mxCell>
        <mxCell id="yoqY20Fh9Ah1oV6qkZ4c-56" value="" style="endArrow=none;html=1;rounded=0;entryX=0.908;entryY=0.786;entryDx=0;entryDy=0;exitX=0.398;exitY=0.002;exitDx=0;exitDy=0;exitPerimeter=0;entryPerimeter=0;" edge="1" parent="1" target="yoqY20Fh9Ah1oV6qkZ4c-55" source="yoqY20Fh9Ah1oV6qkZ4c-52">
          <mxGeometry width="50" height="50" relative="1" as="geometry">
            <mxPoint x="161.39999999999998" y="529.58" as="sourcePoint" />
            <mxPoint x="6" y="441" as="targetPoint" />
          </mxGeometry>
        </mxCell>
        <mxCell id="yoqY20Fh9Ah1oV6qkZ4c-57" value="Name" style="ellipse;whiteSpace=wrap;html=1;" vertex="1" parent="1">
          <mxGeometry x="120" y="434.67" width="60" height="25.33" as="geometry" />
        </mxCell>
        <mxCell id="yoqY20Fh9Ah1oV6qkZ4c-58" value="" style="endArrow=none;html=1;rounded=0;entryX=0.477;entryY=0.999;entryDx=0;entryDy=0;entryPerimeter=0;exitX=0.427;exitY=-0.003;exitDx=0;exitDy=0;exitPerimeter=0;" edge="1" parent="1" target="yoqY20Fh9Ah1oV6qkZ4c-57" source="yoqY20Fh9Ah1oV6qkZ4c-52">
          <mxGeometry width="50" height="50" relative="1" as="geometry">
            <mxPoint x="182" y="510" as="sourcePoint" />
            <mxPoint x="26" y="420.99999999999994" as="targetPoint" />
          </mxGeometry>
        </mxCell>
        <mxCell id="yoqY20Fh9Ah1oV6qkZ4c-59" value="Statues" style="ellipse;whiteSpace=wrap;html=1;" vertex="1" parent="1">
          <mxGeometry x="190" y="434.67" width="70" height="30" as="geometry" />
        </mxCell>
        <mxCell id="yoqY20Fh9Ah1oV6qkZ4c-60" value="" style="endArrow=none;html=1;rounded=0;entryX=0.477;entryY=0.999;entryDx=0;entryDy=0;entryPerimeter=0;" edge="1" parent="1" target="yoqY20Fh9Ah1oV6qkZ4c-59">
          <mxGeometry width="50" height="50" relative="1" as="geometry">
            <mxPoint x="190" y="510" as="sourcePoint" />
            <mxPoint x="96" y="415.67" as="targetPoint" />
          </mxGeometry>
        </mxCell>
        <mxCell id="yoqY20Fh9Ah1oV6qkZ4c-61" value="Hire_Date" style="ellipse;whiteSpace=wrap;html=1;" vertex="1" parent="1">
          <mxGeometry x="243" y="460" width="70" height="30" as="geometry" />
        </mxCell>
        <mxCell id="yoqY20Fh9Ah1oV6qkZ4c-62" value="" style="endArrow=none;html=1;rounded=0;exitX=0.5;exitY=0;exitDx=0;exitDy=0;entryX=0.208;entryY=0.903;entryDx=0;entryDy=0;entryPerimeter=0;" edge="1" parent="1" target="yoqY20Fh9Ah1oV6qkZ4c-61" source="yoqY20Fh9Ah1oV6qkZ4c-52">
          <mxGeometry width="50" height="50" relative="1" as="geometry">
            <mxPoint x="230" y="502.17" as="sourcePoint" />
            <mxPoint x="261" y="487" as="targetPoint" />
          </mxGeometry>
        </mxCell>
        <mxCell id="yoqY20Fh9Ah1oV6qkZ4c-63" value="IS" style="rhombus;whiteSpace=wrap;html=1;" vertex="1" parent="1">
          <mxGeometry x="309" y="515" width="70" height="70" as="geometry" />
        </mxCell>
        <mxCell id="yoqY20Fh9Ah1oV6qkZ4c-64" value="" style="endArrow=none;html=1;rounded=0;exitX=1;exitY=0.25;exitDx=0;exitDy=0;entryX=0.5;entryY=0;entryDx=0;entryDy=0;" edge="1" parent="1" target="yoqY20Fh9Ah1oV6qkZ4c-63" source="yoqY20Fh9Ah1oV6qkZ4c-52">
          <mxGeometry width="50" height="50" relative="1" as="geometry">
            <mxPoint x="281" y="519.9999999999999" as="sourcePoint" />
            <mxPoint x="411" y="592.1700000000001" as="targetPoint" />
          </mxGeometry>
        </mxCell>
        <mxCell id="yoqY20Fh9Ah1oV6qkZ4c-65" value="TEACHERS" style="rounded=0;whiteSpace=wrap;html=1;" vertex="1" parent="1">
          <mxGeometry x="430" y="540" width="100" height="30" as="geometry" />
        </mxCell>
        <mxCell id="yoqY20Fh9Ah1oV6qkZ4c-66" value="" style="endArrow=none;html=1;rounded=0;exitX=-0.005;exitY=0.331;exitDx=0;exitDy=0;entryX=1;entryY=0.5;entryDx=0;entryDy=0;exitPerimeter=0;" edge="1" parent="1" source="yoqY20Fh9Ah1oV6qkZ4c-65" target="yoqY20Fh9Ah1oV6qkZ4c-63">
          <mxGeometry width="50" height="50" relative="1" as="geometry">
            <mxPoint x="426.5" y="574.58" as="sourcePoint" />
            <mxPoint x="380" y="550" as="targetPoint" />
          </mxGeometry>
        </mxCell>
        <mxCell id="yoqY20Fh9Ah1oV6qkZ4c-67" value="Hire_Date" style="ellipse;whiteSpace=wrap;html=1;" vertex="1" parent="1">
          <mxGeometry x="480" y="480" width="70" height="30" as="geometry" />
        </mxCell>
        <mxCell id="yoqY20Fh9Ah1oV6qkZ4c-68" value="" style="endArrow=none;html=1;rounded=0;entryX=0.252;entryY=0.914;entryDx=0;entryDy=0;exitX=1;exitY=0.25;exitDx=0;exitDy=0;entryPerimeter=0;" edge="1" parent="1" target="yoqY20Fh9Ah1oV6qkZ4c-67">
          <mxGeometry width="50" height="50" relative="1" as="geometry">
            <mxPoint x="480" y="540" as="sourcePoint" />
            <mxPoint x="406" y="467.67" as="targetPoint" />
          </mxGeometry>
        </mxCell>
        <mxCell id="yoqY20Fh9Ah1oV6qkZ4c-69" value="TEACHES" style="rhombus;whiteSpace=wrap;html=1;" vertex="1" parent="1">
          <mxGeometry x="590" y="520" width="70" height="70" as="geometry" />
        </mxCell>
        <mxCell id="yoqY20Fh9Ah1oV6qkZ4c-70" value="" style="endArrow=none;html=1;rounded=0;entryX=0.5;entryY=1;entryDx=0;entryDy=0;exitX=0.511;exitY=-0.003;exitDx=0;exitDy=0;exitPerimeter=0;" edge="1" parent="1" target="yoqY20Fh9Ah1oV6qkZ4c-69" source="yoqY20Fh9Ah1oV6qkZ4c-72">
          <mxGeometry width="50" height="50" relative="1" as="geometry">
            <mxPoint x="625" y="650" as="sourcePoint" />
            <mxPoint x="682" y="555" as="targetPoint" />
          </mxGeometry>
        </mxCell>
        <mxCell id="yoqY20Fh9Ah1oV6qkZ4c-71" value="" style="endArrow=none;html=1;rounded=0;entryX=0;entryY=0.5;entryDx=0;entryDy=0;exitX=1;exitY=0.5;exitDx=0;exitDy=0;" edge="1" parent="1" source="yoqY20Fh9Ah1oV6qkZ4c-65" target="yoqY20Fh9Ah1oV6qkZ4c-69">
          <mxGeometry width="50" height="50" relative="1" as="geometry">
            <mxPoint x="656" y="680" as="sourcePoint" />
            <mxPoint x="656" y="600" as="targetPoint" />
          </mxGeometry>
        </mxCell>
        <mxCell id="yoqY20Fh9Ah1oV6qkZ4c-72" value="COURESES" style="rounded=0;whiteSpace=wrap;html=1;" vertex="1" parent="1">
          <mxGeometry x="575" y="640" width="100" height="30" as="geometry" />
        </mxCell>
        <mxCell id="yoqY20Fh9Ah1oV6qkZ4c-75" value="Description" style="ellipse;whiteSpace=wrap;html=1;" vertex="1" parent="1">
          <mxGeometry x="650" y="569" width="81" height="30" as="geometry" />
        </mxCell>
        <mxCell id="yoqY20Fh9Ah1oV6qkZ4c-76" value="" style="endArrow=none;html=1;rounded=0;entryX=0.5;entryY=1;entryDx=0;entryDy=0;exitX=1.021;exitY=0.074;exitDx=0;exitDy=0;exitPerimeter=0;" edge="1" parent="1" target="yoqY20Fh9Ah1oV6qkZ4c-75" source="yoqY20Fh9Ah1oV6qkZ4c-72">
          <mxGeometry width="50" height="50" relative="1" as="geometry">
            <mxPoint x="700" y="640" as="sourcePoint" />
            <mxPoint x="626" y="567.6700000000001" as="targetPoint" />
          </mxGeometry>
        </mxCell>
        <mxCell id="yoqY20Fh9Ah1oV6qkZ4c-77" value="Name" style="ellipse;whiteSpace=wrap;html=1;" vertex="1" parent="1">
          <mxGeometry x="700" y="599" width="70" height="30" as="geometry" />
        </mxCell>
        <mxCell id="yoqY20Fh9Ah1oV6qkZ4c-78" value="" style="endArrow=none;html=1;rounded=0;entryX=0.027;entryY=0.653;entryDx=0;entryDy=0;exitX=1.007;exitY=0.149;exitDx=0;exitDy=0;exitPerimeter=0;entryPerimeter=0;" edge="1" parent="1" target="yoqY20Fh9Ah1oV6qkZ4c-77" source="yoqY20Fh9Ah1oV6qkZ4c-72">
          <mxGeometry width="50" height="50" relative="1" as="geometry">
            <mxPoint x="710" y="670" as="sourcePoint" />
            <mxPoint x="636" y="597.6700000000001" as="targetPoint" />
          </mxGeometry>
        </mxCell>
        <mxCell id="yoqY20Fh9Ah1oV6qkZ4c-79" value="HAVE" style="rhombus;whiteSpace=wrap;html=1;" vertex="1" parent="1">
          <mxGeometry x="445" y="620" width="70" height="70" as="geometry" />
        </mxCell>
        <mxCell id="yoqY20Fh9Ah1oV6qkZ4c-80" value="" style="endArrow=none;html=1;rounded=0;exitX=-0.005;exitY=0.331;exitDx=0;exitDy=0;entryX=1;entryY=0.5;entryDx=0;entryDy=0;exitPerimeter=0;" edge="1" parent="1" target="yoqY20Fh9Ah1oV6qkZ4c-79">
          <mxGeometry width="50" height="50" relative="1" as="geometry">
            <mxPoint x="575" y="655" as="sourcePoint" />
            <mxPoint x="525" y="655" as="targetPoint" />
          </mxGeometry>
        </mxCell>
        <mxCell id="yoqY20Fh9Ah1oV6qkZ4c-81" value="" style="endArrow=none;html=1;rounded=0;exitX=0;exitY=0.5;exitDx=0;exitDy=0;" edge="1" parent="1" source="yoqY20Fh9Ah1oV6qkZ4c-79">
          <mxGeometry width="50" height="50" relative="1" as="geometry">
            <mxPoint x="440" y="560" as="sourcePoint" />
            <mxPoint x="350" y="655" as="targetPoint" />
          </mxGeometry>
        </mxCell>
        <mxCell id="yoqY20Fh9Ah1oV6qkZ4c-82" value="CLASSES" style="rounded=0;whiteSpace=wrap;html=1;" vertex="1" parent="1">
          <mxGeometry x="266" y="640" width="100" height="30" as="geometry" />
        </mxCell>
        <mxCell id="yoqY20Fh9Ah1oV6qkZ4c-83" value="Name" style="ellipse;whiteSpace=wrap;html=1;" vertex="1" parent="1">
          <mxGeometry x="210" y="570" width="70" height="30" as="geometry" />
        </mxCell>
        <mxCell id="yoqY20Fh9Ah1oV6qkZ4c-84" value="" style="endArrow=none;html=1;rounded=0;entryX=0.5;entryY=1;entryDx=0;entryDy=0;exitX=1;exitY=0.25;exitDx=0;exitDy=0;" edge="1" parent="1" target="yoqY20Fh9Ah1oV6qkZ4c-83">
          <mxGeometry width="50" height="50" relative="1" as="geometry">
            <mxPoint x="281" y="640" as="sourcePoint" />
            <mxPoint x="207" y="567.6700000000001" as="targetPoint" />
          </mxGeometry>
        </mxCell>
        <mxCell id="yoqY20Fh9Ah1oV6qkZ4c-85" value="ID" style="ellipse;whiteSpace=wrap;html=1;" vertex="1" parent="1">
          <mxGeometry x="281" y="585" width="70" height="30" as="geometry" />
        </mxCell>
        <mxCell id="yoqY20Fh9Ah1oV6qkZ4c-86" value="" style="endArrow=none;html=1;rounded=0;entryX=0.252;entryY=0.914;entryDx=0;entryDy=0;exitX=0.157;exitY=-0.052;exitDx=0;exitDy=0;entryPerimeter=0;exitPerimeter=0;" edge="1" parent="1" target="yoqY20Fh9Ah1oV6qkZ4c-85" source="yoqY20Fh9Ah1oV6qkZ4c-82">
          <mxGeometry width="50" height="50" relative="1" as="geometry">
            <mxPoint x="344" y="640" as="sourcePoint" />
            <mxPoint x="270" y="567.6700000000001" as="targetPoint" />
          </mxGeometry>
        </mxCell>
        <mxCell id="yoqY20Fh9Ah1oV6qkZ4c-87" value="ID" style="ellipse;whiteSpace=wrap;html=1;" vertex="1" parent="1">
          <mxGeometry x="740" y="629" width="50" height="30" as="geometry" />
        </mxCell>
        <mxCell id="yoqY20Fh9Ah1oV6qkZ4c-88" value="" style="endArrow=none;html=1;rounded=0;entryX=0;entryY=0.5;entryDx=0;entryDy=0;exitX=1;exitY=0.162;exitDx=0;exitDy=0;exitPerimeter=0;" edge="1" parent="1" target="yoqY20Fh9Ah1oV6qkZ4c-87" source="yoqY20Fh9Ah1oV6qkZ4c-72">
          <mxGeometry width="50" height="50" relative="1" as="geometry">
            <mxPoint x="785" y="696" as="sourcePoint" />
            <mxPoint x="746" y="623.6700000000001" as="targetPoint" />
          </mxGeometry>
        </mxCell>
        <mxCell id="yoqY20Fh9Ah1oV6qkZ4c-89" value="HAVE" style="rhombus;whiteSpace=wrap;html=1;" vertex="1" parent="1">
          <mxGeometry x="590" y="720" width="70" height="70" as="geometry" />
        </mxCell>
        <mxCell id="yoqY20Fh9Ah1oV6qkZ4c-90" value="" style="endArrow=none;html=1;rounded=0;exitX=0.5;exitY=1;exitDx=0;exitDy=0;entryX=0.5;entryY=0;entryDx=0;entryDy=0;" edge="1" parent="1" source="yoqY20Fh9Ah1oV6qkZ4c-72" target="yoqY20Fh9Ah1oV6qkZ4c-89">
          <mxGeometry width="50" height="50" relative="1" as="geometry">
            <mxPoint x="585" y="665" as="sourcePoint" />
            <mxPoint x="525" y="665" as="targetPoint" />
          </mxGeometry>
        </mxCell>
        <mxCell id="yoqY20Fh9Ah1oV6qkZ4c-91" value="" style="endArrow=none;html=1;rounded=0;entryX=0.5;entryY=1;entryDx=0;entryDy=0;exitX=0.99;exitY=0.649;exitDx=0;exitDy=0;exitPerimeter=0;" edge="1" parent="1" source="yoqY20Fh9Ah1oV6qkZ4c-92" target="yoqY20Fh9Ah1oV6qkZ4c-89">
          <mxGeometry width="50" height="50" relative="1" as="geometry">
            <mxPoint x="490" y="790" as="sourcePoint" />
            <mxPoint x="635" y="730" as="targetPoint" />
          </mxGeometry>
        </mxCell>
        <mxCell id="yoqY20Fh9Ah1oV6qkZ4c-92" value="Bookes" style="rounded=0;whiteSpace=wrap;html=1;" vertex="1" parent="1">
          <mxGeometry x="410" y="770" width="100" height="30" as="geometry" />
        </mxCell>
        <mxCell id="yoqY20Fh9Ah1oV6qkZ4c-93" value="Name" style="ellipse;whiteSpace=wrap;html=1;" vertex="1" parent="1">
          <mxGeometry x="343" y="715" width="70" height="30" as="geometry" />
        </mxCell>
        <mxCell id="yoqY20Fh9Ah1oV6qkZ4c-94" value="" style="endArrow=none;html=1;rounded=0;entryX=0.5;entryY=1;entryDx=0;entryDy=0;exitX=0.357;exitY=-0.021;exitDx=0;exitDy=0;exitPerimeter=0;" edge="1" parent="1" target="yoqY20Fh9Ah1oV6qkZ4c-93" source="yoqY20Fh9Ah1oV6qkZ4c-92">
          <mxGeometry width="50" height="50" relative="1" as="geometry">
            <mxPoint x="445" y="770" as="sourcePoint" />
            <mxPoint x="371" y="697.6700000000001" as="targetPoint" />
          </mxGeometry>
        </mxCell>
        <mxCell id="yoqY20Fh9Ah1oV6qkZ4c-95" value="ID" style="ellipse;whiteSpace=wrap;html=1;" vertex="1" parent="1">
          <mxGeometry x="410" y="700" width="55" height="25" as="geometry" />
        </mxCell>
        <mxCell id="yoqY20Fh9Ah1oV6qkZ4c-96" value="" style="endArrow=none;html=1;rounded=0;entryX=0.252;entryY=0.914;entryDx=0;entryDy=0;exitX=0.357;exitY=-0.024;exitDx=0;exitDy=0;entryPerimeter=0;exitPerimeter=0;" edge="1" parent="1" target="yoqY20Fh9Ah1oV6qkZ4c-95" source="yoqY20Fh9Ah1oV6qkZ4c-92">
          <mxGeometry width="50" height="50" relative="1" as="geometry">
            <mxPoint x="446" y="768" as="sourcePoint" />
            <mxPoint x="434" y="697.6700000000001" as="targetPoint" />
          </mxGeometry>
        </mxCell>
        <mxCell id="yoqY20Fh9Ah1oV6qkZ4c-97" value="Description" style="ellipse;whiteSpace=wrap;html=1;" vertex="1" parent="1">
          <mxGeometry x="470" y="700" width="80" height="30" as="geometry" />
        </mxCell>
        <mxCell id="yoqY20Fh9Ah1oV6qkZ4c-98" value="" style="endArrow=none;html=1;rounded=0;entryX=0.252;entryY=0.914;entryDx=0;entryDy=0;exitX=0.361;exitY=-0.029;exitDx=0;exitDy=0;entryPerimeter=0;exitPerimeter=0;" edge="1" parent="1" target="yoqY20Fh9Ah1oV6qkZ4c-97" source="yoqY20Fh9Ah1oV6qkZ4c-92">
          <mxGeometry width="50" height="50" relative="1" as="geometry">
            <mxPoint x="516" y="757" as="sourcePoint" />
            <mxPoint x="504" y="685.6700000000001" as="targetPoint" />
          </mxGeometry>
        </mxCell>
      </root>
    </mxGraphModel>
  </diagram>
</mxfile>
